<svg width="26" height="26" viewBox="0 0 26 26" fill="none" xmlns="http://www.w3.org/2000/svg">
<g clip-path="url(#clip0_15_1137)">
<path d="M13.6428 2.67286C13.1813 2.67182 12.699 2.80723 12.2782 3.08432L5.96256 7.22807L5.9209 7.24057H3.09902C1.69694 7.24161 0.562565 8.37598 0.561523 9.77807V16.2322C0.562565 17.6343 1.69694 18.7687 3.09902 18.7697H5.99069L6.03236 18.7822L12.2699 22.9093C12.6928 23.1906 13.1782 23.327 13.6428 23.326C14.298 23.3249 14.9115 23.0697 15.373 22.6312C15.8355 22.1958 16.1438 21.5447 16.1417 20.8291V5.16973C16.1449 4.45307 15.8365 3.80307 15.374 3.36765C14.9115 2.92911 14.298 2.6739 13.6428 2.67286ZM14.0584 20.8301C14.0553 20.9687 14.0136 21.0458 13.9365 21.1239C13.8594 21.1989 13.7438 21.2447 13.6428 21.2437L13.4199 21.1729L7.18236 17.0458C6.82819 16.8124 6.41361 16.6874 5.99069 16.6874H3.09902C2.84902 16.6874 2.64486 16.4833 2.64486 16.2333V9.77911C2.64486 9.52911 2.84902 9.32494 3.09902 9.32494H5.9209C6.34173 9.32494 6.75423 9.20202 7.10631 8.97077L13.4209 4.82598L13.6428 4.75619C13.7438 4.75515 13.8584 4.80098 13.9365 4.87598C14.0136 4.95411 14.0563 5.03223 14.0584 5.16973V20.8301Z" fill="black"/>
<path d="M19.0387 8.35425C18.5908 7.90633 17.8293 7.90633 17.3814 8.35425C16.9325 8.80321 16.9325 9.56258 17.3814 10.0115C17.4877 10.1178 17.5856 10.2292 17.6856 10.3417C17.7022 10.3605 17.7179 10.3782 17.7293 10.3928C17.7772 10.4563 17.8231 10.522 17.8668 10.5876C17.9575 10.723 18.0418 10.8615 18.12 11.0042C18.1627 11.0824 18.2033 11.1626 18.2429 11.2428C18.247 11.2522 18.272 11.3063 18.2887 11.3438C18.3075 11.3938 18.345 11.4886 18.3502 11.5042C18.3793 11.5876 18.4064 11.672 18.4325 11.7563C18.4783 11.9084 18.5168 12.0615 18.5491 12.2167C18.5658 12.299 18.5793 12.3834 18.5939 12.4657C18.5939 12.472 18.5929 12.4667 18.5929 12.4761C18.597 12.6511 18.6179 12.824 18.6179 13.0001C18.6179 13.1574 18.6075 13.3147 18.5981 13.472C18.596 13.5074 18.595 13.5126 18.5939 13.5261C18.5835 13.5949 18.572 13.6636 18.5585 13.7324C18.495 14.0542 18.4012 14.3709 18.2804 14.6761C18.2741 14.6886 18.2741 14.6917 18.2658 14.7084C18.2262 14.7886 18.1877 14.8688 18.145 14.948C18.0689 15.0917 17.9856 15.2313 17.897 15.3667C17.847 15.4428 17.795 15.5178 17.7408 15.5917C17.7272 15.6095 17.7335 15.6042 17.7293 15.6105C17.7147 15.6261 17.7137 15.6261 17.6845 15.6584C17.5845 15.7699 17.4866 15.8824 17.3804 15.9886C16.9325 16.4365 16.9325 17.198 17.3804 17.6459C17.8293 18.0949 18.5887 18.0949 19.0377 17.6459C21.5668 15.1178 21.5668 10.8824 19.0387 8.35425Z" fill="black"/>
<path d="M22.2218 5.03421C21.1541 3.9665 19.4958 5.62275 20.5645 6.6915C24.0062 10.1332 24.0062 15.8665 20.5645 19.3082C19.4968 20.3759 21.1531 22.0342 22.2218 20.9655C26.5583 16.629 26.5583 9.37067 22.2218 5.03421Z" fill="black"/>
</g>
<defs>
<clipPath id="clip0_15_1137">
<rect width="25" height="25" fill="white" transform="translate(0.5 0.5)"/>
</clipPath>
</defs>
</svg>
